<?xml version="1.0" encoding="utf-8"?>
<!-- Generator: Adobe Illustrator 15.0.0, SVG Export Plug-In . SVG Version: 6.00 Build 0)  -->
<!DOCTYPE svg PUBLIC "-//W3C//DTD SVG 1.1//EN" "http://www.w3.org/Graphics/SVG/1.1/DTD/svg11.dtd">
<svg version="1.1" id="Layer_1" xmlns="http://www.w3.org/2000/svg" xmlns:xlink="http://www.w3.org/1999/xlink" x="0px" y="0px"
	 width="79.829px" height="81.775px" viewBox="0 0 79.829 81.775" enable-background="new 0 0 79.829 81.775" xml:space="preserve">
<path fill="#FFFFFF" d="M3.542,4.467c9.364,0.114,18.728-0.023,28.092,0.08c-9.272,9.513-18.842,18.74-28.092,28.275
	C3.52,23.366,3.52,13.911,3.542,4.467z"/>
<path fill="#FFFFFF" d="M3.531,64.398C23.39,44.368,43.409,24.497,63.325,4.524c4.807-0.046,9.604,0.023,14.411-0.046
	c0.091,4.385,0.034,8.771,0.057,13.155c0.286,1.53-1.188,2.41-2.032,3.403c-19.3,19.208-38.496,38.507-57.784,57.738
	c-4.819-0.012-9.638,0.011-14.458-0.012C3.52,73.978,3.52,69.194,3.531,64.398z"/>
<path fill="#FFFFFF" d="M49.552,78.695c9.547-9.193,18.695-18.797,28.219-28.001c0.012,9.363,0.046,18.729-0.011,28.104
	C68.36,78.683,58.95,78.876,49.552,78.695z"/>
</svg>
