<?xml version="1.0" encoding="utf-8"?>
<!-- Generator: Adobe Illustrator 15.0.0, SVG Export Plug-In . SVG Version: 6.00 Build 0)  -->
<!DOCTYPE svg PUBLIC "-//W3C//DTD SVG 1.1//EN" "http://www.w3.org/Graphics/SVG/1.1/DTD/svg11.dtd">
<svg version="1.1" id="Layer_1" xmlns="http://www.w3.org/2000/svg" xmlns:xlink="http://www.w3.org/1999/xlink" x="0px" y="0px"
	 width="181.955px" height="50.604px" viewBox="0 0 181.955 50.604" enable-background="new 0 0 181.955 50.604"
	 xml:space="preserve">
<path fill="#5A5A5A" d="M2.469,2.457c5.814,0.071,11.627-0.014,17.441,0.05C14.153,8.412,8.212,14.141,2.469,20.06
	C2.455,14.19,2.455,8.32,2.469,2.457z"/>
<path fill="#939393" d="M2.462,39.664C14.791,27.228,27.22,14.892,39.584,2.492c2.984-0.029,5.962,0.014,8.947-0.029
	c0.057,2.723,0.021,5.445,0.035,8.167c0.178,0.95-0.737,1.496-1.262,2.113C35.323,24.668,23.405,36.65,11.431,48.589
	c-2.992-0.007-5.983,0.007-8.976-0.007C2.455,45.611,2.455,42.641,2.462,39.664z"/>
<path fill="#5A5A5A" d="M31.033,48.54c5.927-5.708,11.607-11.669,17.52-17.384c0.007,5.813,0.028,11.627-0.007,17.448
	C42.71,48.533,36.868,48.652,31.033,48.54z"/>
<g>
	<path fill="#5A5A5A" d="M60.662,15.237H81.06L69.09,36.223h11.285v5.657H58.825l12.025-20.986H60.662V15.237z"/>
	<path fill="#5A5A5A" d="M111.547,30.493H90.071c0.31,1.894,1.139,3.4,2.485,4.518c1.347,1.118,3.065,1.677,5.155,1.677
		c2.497,0,4.644-0.873,6.439-2.62l5.633,2.645c-1.404,1.992-3.086,3.465-5.045,4.42s-4.285,1.433-6.979,1.433
		c-4.18,0-7.583-1.318-10.212-3.955c-2.628-2.636-3.942-5.938-3.942-9.905c0-4.065,1.31-7.44,3.93-10.126
		c2.621-2.685,5.906-4.028,9.857-4.028c4.195,0,7.606,1.343,10.235,4.028c2.629,2.686,3.942,6.232,3.942,10.64L111.547,30.493z
		 M104.862,25.228c-0.441-1.485-1.313-2.693-2.613-3.624c-1.3-0.931-2.808-1.396-4.525-1.396c-1.864,0-3.5,0.523-4.905,1.567
		c-0.883,0.653-1.701,1.804-2.453,3.453H104.862z"/>
	<path fill="#5A5A5A" d="M136.623,15.237h6.686V41.88h-6.686v-2.816c-1.305,1.241-2.613,2.134-3.926,2.681s-2.735,0.82-4.268,0.82
		c-3.441,0-6.417-1.334-8.928-4.003c-2.512-2.669-3.767-5.987-3.767-9.955c0-4.114,1.215-7.485,3.645-10.113
		s5.381-3.943,8.854-3.943c1.599,0,3.098,0.302,4.5,0.906s2.699,1.51,3.89,2.718V15.237z M129.596,20.722
		c-2.066,0-3.783,0.731-5.15,2.192c-1.366,1.461-2.05,3.334-2.05,5.62c0,2.302,0.695,4.196,2.087,5.681
		c1.391,1.485,3.104,2.228,5.137,2.228c2.1,0,3.841-0.73,5.224-2.191c1.383-1.461,2.074-3.375,2.074-5.743
		c0-2.318-0.691-4.195-2.074-5.632S131.711,20.722,129.596,20.722z"/>
	<path fill="#5A5A5A" d="M169.73,4.952h6.686V41.88h-6.686v-2.816c-1.305,1.241-2.613,2.134-3.926,2.681s-2.735,0.82-4.268,0.82
		c-3.441,0-6.417-1.334-8.928-4.003c-2.512-2.669-3.767-5.987-3.767-9.955c0-4.114,1.215-7.485,3.645-10.113
		s5.381-3.943,8.854-3.943c1.599,0,3.098,0.302,4.5,0.906s2.699,1.51,3.89,2.718V4.952z M162.703,20.722
		c-2.066,0-3.783,0.731-5.15,2.192c-1.366,1.461-2.05,3.334-2.05,5.62c0,2.302,0.695,4.196,2.087,5.681
		c1.391,1.485,3.104,2.228,5.137,2.228c2.1,0,3.841-0.73,5.224-2.191c1.383-1.461,2.074-3.375,2.074-5.743
		c0-2.318-0.691-4.195-2.074-5.632S164.818,20.722,162.703,20.722z"/>
</g>
</svg>
